<?xml version="1.0" encoding="utf-8"?>
<!-- Generator: Adobe Illustrator 24.1.2, SVG Export Plug-In . SVG Version: 6.00 Build 0)  -->
<svg version="1.1" id="Layer_1" xmlns="http://www.w3.org/2000/svg" xmlns:xlink="http://www.w3.org/1999/xlink" x="0px" y="0px"
	 viewBox="0 0 60 60" style="enable-background:new 0 0 60 60;" xml:space="preserve">
<style type="text/css">
	.st0{fill:#A3A3A8;}
	.st1{fill:#DE4075;}
	.st2{fill:#DD0B61;}
	.st3{fill:#FFFFFF;}
	.st4{fill:#F7F6FB;}
	.st5{opacity:0.15;}
	.st6{fill:#DF396B;}
	.st7{fill:#FF0000;}
	.st8{fill:#1A1A1A;}
	.st9{fill:#CCCCCC;}
	.st10{opacity:0.3;}
	.st11{fill:#1976D2;}
	.st12{fill:#FAFAFA;}
	.st13{fill:#FBBD00;}
	.st14{fill:#0F9D58;}
	.st15{fill:#31AA52;}
	.st16{fill:#3C79E6;}
	.st17{fill:#CF2D48;}
	.st18{fill:#EB4132;}
</style>
<g>
	<g>
		<path class="st3" d="M47.45,14.26c-2.16-2.32-5.18-3.64-8.35-3.64c-3.17,0-6.2,1.32-8.36,3.64L30,15.03l-0.74-0.78
			c-4.29-4.62-11.51-4.88-16.13-0.59c-0.2,0.19-0.4,0.39-0.59,0.59C8,19.16,8,26.75,12.55,31.66l16.37,17.27
			c0.57,0.6,1.51,0.62,2.11,0.06c0.02-0.02,0.04-0.04,0.06-0.06l16.37-17.27C52,26.75,52,19.16,47.45,14.26z M45.29,29.6L45.29,29.6
			L30,45.73L14.71,29.6c-3.48-3.75-3.48-9.55,0-13.3c3.16-3.42,8.49-3.64,11.91-0.48c0.17,0.15,0.33,0.31,0.48,0.48l1.82,1.92
			c0.6,0.6,1.57,0.6,2.17,0l1.82-1.92c3.16-3.42,8.49-3.64,11.91-0.48c0.17,0.15,0.33,0.31,0.48,0.48
			C48.8,20.07,48.83,25.87,45.29,29.6z"/>
	</g>
</g>
</svg>
