<?xml version="1.0" encoding="utf-8"?>
<!-- Generator: Adobe Illustrator 24.1.2, SVG Export Plug-In . SVG Version: 6.00 Build 0)  -->
<svg version="1.1" id="Layer_1" xmlns="http://www.w3.org/2000/svg" xmlns:xlink="http://www.w3.org/1999/xlink" x="0px" y="0px"
	 viewBox="0 0 60 60" style="enable-background:new 0 0 60 60;" xml:space="preserve">
<style type="text/css">
	.st0{fill:#A3A3A8;}
	.st1{fill:#DE4075;}
	.st2{fill:#DD0B61;}
	.st3{fill:#FFFFFF;}
	.st4{fill:#F7F6FB;}
	.st5{opacity:0.15;}
	.st6{fill:#DF396B;}
	.st7{fill:#FF0000;}
	.st8{fill:#1A1A1A;}
	.st9{fill:#CCCCCC;}
	.st10{opacity:0.3;}
	.st11{fill:#1976D2;}
	.st12{fill:#FAFAFA;}
	.st13{fill:#FBBD00;}
	.st14{fill:#0F9D58;}
	.st15{fill:#31AA52;}
	.st16{fill:#3C79E6;}
	.st17{fill:#CF2D48;}
	.st18{fill:#EB4132;}
</style>
<path class="st0" d="M40.13,25.5H39V21c0-4.96-4.04-9-9-9s-9,4.04-9,9v4.5h-1.13c-1.86,0-3.38,1.51-3.38,3.38v15.75
	c0,1.86,1.51,3.38,3.38,3.38h20.25c1.86,0,3.38-1.51,3.38-3.38V28.88C43.5,27.01,41.99,25.5,40.13,25.5z M24,21c0-3.31,2.69-6,6-6
	s6,2.69,6,6v4.5H24V21z M31.5,37.08v3.42c0,0.83-0.67,1.5-1.5,1.5s-1.5-0.67-1.5-1.5v-3.42c-0.89-0.52-1.5-1.48-1.5-2.58
	c0-1.65,1.35-3,3-3s3,1.35,3,3C33,35.61,32.39,36.56,31.5,37.08z"/>
</svg>
