<?xml version="1.0" encoding="utf-8"?>
<!-- Generator: Adobe Illustrator 24.1.2, SVG Export Plug-In . SVG Version: 6.00 Build 0)  -->
<svg version="1.1" id="Layer_1" xmlns="http://www.w3.org/2000/svg" xmlns:xlink="http://www.w3.org/1999/xlink" x="0px" y="0px"
	 viewBox="0 0 60 60" style="enable-background:new 0 0 60 60;" xml:space="preserve">
<style type="text/css">
	.st0{fill:#A3A3A8;}
	.st1{fill:#DE4075;}
	.st2{fill:#DD0B61;}
	.st3{fill:#FFFFFF;}
	.st4{fill:#F7F6FB;}
	.st5{opacity:0.15;}
	.st6{fill:#DF396B;}
	.st7{fill:#FF0000;}
	.st8{fill:#1A1A1A;}
	.st9{fill:#CCCCCC;}
	.st10{opacity:0.3;}
	.st11{fill:#1976D2;}
	.st12{fill:#FAFAFA;}
	.st13{fill:#FBBD00;}
	.st14{fill:#0F9D58;}
	.st15{fill:#31AA52;}
	.st16{fill:#3C79E6;}
	.st17{fill:#CF2D48;}
	.st18{fill:#EB4132;}
</style>
<g>
	<g>
		<g>
			<path class="st0" d="M44.13,20.64c-1.37-4.44-4.99-8.05-9.43-9.43c-4.7-1.46-9.7-0.65-13.52,2.17
				c-3.79,2.79-6.05,7.27-6.05,11.97c0,3.24,1.03,6.32,2.97,8.91L30,49.5l11.89-15.25C44.8,30.38,45.61,25.42,44.13,20.64z
				 M30,33.34c-4.41,0-8-3.59-8-8s3.59-8,8-8s8,3.59,8,8S34.41,33.34,30,33.34z"/>
		</g>
	</g>
	<g>
		<g>
			<path class="st0" d="M30,19.64c-3.15,0-5.71,2.55-5.71,5.7s2.56,5.71,5.71,5.71s5.71-2.56,5.71-5.71
				C35.72,22.19,33.15,19.64,30,19.64z"/>
		</g>
	</g>
</g>
</svg>
