<?xml version="1.0" encoding="utf-8"?>
<!-- Generator: Adobe Illustrator 24.1.2, SVG Export Plug-In . SVG Version: 6.00 Build 0)  -->
<svg version="1.1" id="Layer_1" xmlns="http://www.w3.org/2000/svg" xmlns:xlink="http://www.w3.org/1999/xlink" x="0px" y="0px"
	 viewBox="0 0 80 80" style="enable-background:new 0 0 80 80;" xml:space="preserve">
<style type="text/css">
	.st0{fill:#A3A3A8;}
	.st1{fill:#DE4075;}
	.st2{fill:#DD0B61;}
	.st3{fill:#FFFFFF;}
	.st4{fill:#F7F6FB;}
	.st5{opacity:0.15;}
	.st6{fill:#DF396B;}
	.st7{fill:#FF0000;}
	.st8{fill:#1A1A1A;}
	.st9{fill:#CCCCCC;}
	.st10{opacity:0.3;}
	.st11{fill:#1976D2;}
	.st12{fill:#FAFAFA;}
	.st13{fill:#FBBD00;}
	.st14{fill:#0F9D58;}
	.st15{fill:#31AA52;}
	.st16{fill:#3C79E6;}
	.st17{fill:#CF2D48;}
	.st18{fill:#EB4132;}
</style>
<g>
	<g>
		<path class="st1" d="M65.65,16.86c-3.17-3.41-7.62-5.35-12.28-5.36c-4.66,0.01-9.11,1.94-12.29,5.36L40,18l-1.08-1.14
			c-6.31-6.79-16.92-7.18-23.7-0.87c-0.3,0.28-0.59,0.57-0.87,0.87c-6.69,7.21-6.69,18.36,0,25.58l24.07,25.38
			c0.83,0.88,2.22,0.92,3.1,0.08c0.03-0.03,0.06-0.06,0.08-0.08l24.06-25.38C72.34,35.22,72.34,24.07,65.65,16.86z M62.48,39.42
			L62.48,39.42L40,63.12l-22.48-23.7c-5.11-5.51-5.11-14.03,0-19.54c4.64-5.03,12.48-5.34,17.51-0.7c0.24,0.23,0.48,0.46,0.7,0.7
			l2.67,2.82c0.88,0.88,2.3,0.88,3.18,0l2.67-2.82c4.64-5.03,12.48-5.34,17.51-0.7c0.24,0.23,0.48,0.46,0.7,0.7
			C67.64,25.4,67.67,33.93,62.48,39.42z"/>
	</g>
</g>
</svg>
