<?xml version="1.0" encoding="utf-8"?>
<!-- Generator: Adobe Illustrator 24.1.2, SVG Export Plug-In . SVG Version: 6.00 Build 0)  -->
<svg version="1.1" id="Layer_1" xmlns="http://www.w3.org/2000/svg" xmlns:xlink="http://www.w3.org/1999/xlink" x="0px" y="0px"
	 viewBox="0 0 60 60" style="enable-background:new 0 0 60 60;" xml:space="preserve">
<style type="text/css">
	.st0{fill:#A3A3A8;}
	.st1{fill:#DE4075;}
	.st2{fill:#DD0B61;}
	.st3{fill:#FFFFFF;}
	.st4{fill:#F7F6FB;}
	.st5{opacity:0.15;}
	.st6{fill:#DF396B;}
	.st7{fill:#FF0000;}
	.st8{fill:#1A1A1A;}
	.st9{fill:#CCCCCC;}
	.st10{opacity:0.3;}
	.st11{fill:#1976D2;}
	.st12{fill:#FAFAFA;}
	.st13{fill:#FBBD00;}
	.st14{fill:#0F9D58;}
	.st15{fill:#31AA52;}
	.st16{fill:#3C79E6;}
	.st17{fill:#CF2D48;}
	.st18{fill:#EB4132;}
</style>
<g>
	<g>
		<g>
			<path class="st1" d="M43.89,16.11c-3.71-3.71-8.64-5.75-13.89-5.75s-10.18,2.04-13.89,5.75S10.36,24.75,10.36,30
				s2.04,10.18,5.75,13.89s8.64,5.75,13.89,5.75s10.18-2.04,13.89-5.75s5.75-8.64,5.75-13.89S47.6,19.82,43.89,16.11z M30,45.79
				c-8.71,0-15.79-7.08-15.79-15.79c0-0.01,0-0.03,0-0.04c0,0,0-0.01,0-0.01c0-0.01,0-0.01,0-0.02c0.04-8.6,6.99-15.6,15.57-15.71
				c0.02,0,0.04,0,0.05,0c0.01,0,0.02,0,0.03,0c0.04,0,0.09,0,0.13,0c8.71,0,15.79,7.08,15.79,15.79S38.71,45.79,30,45.79z"/>
		</g>
	</g>
	<g>
		<g>
			<path class="st1" d="M41.99,30.95c-0.64,0-1.16-0.52-1.16-1.16s0.52-1.16,1.16-1.16h1.4C42.73,22.17,37.5,17.05,31,16.57v1.22
				c0,0.64-0.52,1.16-1.16,1.16c-0.64,0-1.16-0.52-1.16-1.16V16.6c-6.41,0.63-11.51,5.76-12.08,12.18h1.25
				c0.64,0,1.16,0.52,1.16,1.16c0,0.64-0.52,1.16-1.16,1.16h-1.26c0.53,6.52,5.74,11.74,12.25,12.3v-1.47
				c0-0.64,0.52-1.16,1.16-1.16s1.16,0.52,1.16,1.16v1.47c6.57-0.56,11.81-5.87,12.27-12.46H41.99z M34.71,26.94l-3.88,3.88
				c-0.22,0.22-0.51,0.34-0.82,0.34c-0.31,0-0.6-0.12-0.82-0.34l-6.76-6.76c-0.45-0.45-0.45-1.19,0-1.64c0.45-0.45,1.19-0.45,1.64,0
				L30,28.36l3.06-3.06c0.45-0.45,1.19-0.45,1.64,0C35.16,25.75,35.16,26.48,34.71,26.94z"/>
		</g>
	</g>
</g>
</svg>
