<?xml version="1.0" encoding="utf-8"?>
<!-- Generator: Adobe Illustrator 24.1.2, SVG Export Plug-In . SVG Version: 6.00 Build 0)  -->
<svg version="1.1" id="Layer_1" xmlns="http://www.w3.org/2000/svg" xmlns:xlink="http://www.w3.org/1999/xlink" x="0px" y="0px"
	 viewBox="0 0 60 60" style="enable-background:new 0 0 60 60;" xml:space="preserve">
<style type="text/css">
	.st0{fill:#A3A3A8;}
	.st1{fill:#DE4075;}
	.st2{fill:#DD0B61;}
	.st3{fill:#FFFFFF;}
	.st4{fill:#F7F6FB;}
	.st5{opacity:0.15;}
	.st6{fill:#DF396B;}
	.st7{fill:#FF0000;}
	.st8{fill:#1A1A1A;}
	.st9{fill:#CCCCCC;}
	.st10{opacity:0.3;}
	.st11{fill:#1976D2;}
	.st12{fill:#FAFAFA;}
	.st13{fill:#FBBD00;}
	.st14{fill:#0F9D58;}
	.st15{fill:#31AA52;}
	.st16{fill:#3C79E6;}
	.st17{fill:#CF2D48;}
	.st18{fill:#EB4132;}
</style>
<g>
	<g>
		<g>
			<g>
				<path class="st3" d="M47.59,9.56H12.41c-3.93,0-7.13,3.2-7.13,7.13v26.62c0,3.93,3.2,7.13,7.13,7.13h35.18
					c3.93,0,7.13-3.2,7.13-7.13V16.69C54.72,12.76,51.52,9.56,47.59,9.56z M51.87,34.28H41.41c-2.36,0-4.28-1.92-4.28-4.28
					s1.92-4.28,4.28-4.28h10.46L51.87,34.28L51.87,34.28z M51.87,22.87H41.41c-3.93,0-7.13,3.2-7.13,7.13s3.2,7.13,7.13,7.13h10.46
					v6.18c0,2.36-1.92,4.28-4.28,4.28H12.41c-2.36,0-4.28-1.92-4.28-4.28V16.69c0-2.36,1.92-4.28,4.28-4.28h35.18
					c2.36,0,4.28,1.92,4.28,4.28L51.87,22.87L51.87,22.87z"/>
			</g>
		</g>
		<g>
			<g>
				<path class="st3" d="M43.31,28.57h-1.9c-0.79,0-1.43,0.64-1.43,1.43c0,0.79,0.64,1.43,1.43,1.43h1.9c0.79,0,1.43-0.64,1.43-1.43
					C44.74,29.21,44.1,28.57,43.31,28.57z"/>
			</g>
		</g>
	</g>
</g>
</svg>
