<?xml version="1.0" encoding="utf-8"?>
<!-- Generator: Adobe Illustrator 24.1.2, SVG Export Plug-In . SVG Version: 6.00 Build 0)  -->
<svg version="1.1" id="Layer_1" xmlns="http://www.w3.org/2000/svg" xmlns:xlink="http://www.w3.org/1999/xlink" x="0px" y="0px"
	 viewBox="0 0 60 60" style="enable-background:new 0 0 60 60;" xml:space="preserve">
<style type="text/css">
	.st0{fill:#A3A3A8;}
	.st1{fill:#DE4075;}
	.st2{fill:#DD0B61;}
	.st3{fill:#FFFFFF;}
	.st4{fill:#F7F6FB;}
	.st5{opacity:0.15;}
	.st6{fill:#DF396B;}
	.st7{fill:#FF0000;}
	.st8{fill:#1A1A1A;}
	.st9{fill:#CCCCCC;}
	.st10{opacity:0.3;}
	.st11{fill:#1976D2;}
	.st12{fill:#FAFAFA;}
	.st13{fill:#FBBD00;}
	.st14{fill:#0F9D58;}
	.st15{fill:#31AA52;}
	.st16{fill:#3C79E6;}
	.st17{fill:#CF2D48;}
	.st18{fill:#EB4132;}
</style>
<g>
	<g>
		<path class="st0" d="M49.84,19.71L30.4,12.85c-0.26-0.09-0.54-0.09-0.8,0l-19.43,6.86c-0.48,0.17-0.81,0.63-0.81,1.14
			c0,0.51,0.32,0.97,0.8,1.14l19.43,6.91c0.13,0.05,0.27,0.07,0.41,0.07c0.14,0,0.27-0.02,0.41-0.07l19.43-6.91
			c0.48-0.17,0.8-0.63,0.8-1.14C50.64,20.33,50.32,19.88,49.84,19.71z"/>
		<path class="st0" d="M47.74,35.85V25.3l-2.42,0.86v9.69c-0.73,0.42-1.22,1.21-1.22,2.11c0,0.9,0.49,1.69,1.22,2.11v5.94
			c0,0.67,0.54,1.21,1.21,1.21c0.67,0,1.21-0.54,1.21-1.21v-5.94c0.73-0.42,1.22-1.21,1.22-2.11
			C48.96,37.06,48.47,36.27,47.74,35.85z"/>
		<path class="st0" d="M30,31.39c-0.42,0-0.82-0.07-1.22-0.21l-10.92-3.88v5.32c0,1.3,1.36,2.4,4.04,3.27
			c2.34,0.76,5.21,1.18,8.1,1.18s5.77-0.42,8.1-1.18c2.68-0.87,4.04-1.97,4.04-3.27v-5.32l-10.92,3.88
			C30.82,31.31,30.42,31.39,30,31.39z"/>
	</g>
</g>
</svg>
