<?xml version="1.0" encoding="utf-8"?>
<!-- Generator: Adobe Illustrator 24.1.2, SVG Export Plug-In . SVG Version: 6.00 Build 0)  -->
<svg version="1.1" id="Layer_1" xmlns="http://www.w3.org/2000/svg" xmlns:xlink="http://www.w3.org/1999/xlink" x="0px" y="0px"
	 viewBox="0 0 80 80" style="enable-background:new 0 0 80 80;" xml:space="preserve">
<style type="text/css">
	.st0{fill:#A3A3A8;}
	.st1{fill:#DE4075;}
	.st2{fill:#DD0B61;}
	.st3{fill:#FFFFFF;}
	.st4{fill:#F7F6FB;}
	.st5{opacity:0.15;}
	.st6{fill:#DF396B;}
	.st7{fill:#FF0000;}
	.st8{fill:#1A1A1A;}
	.st9{fill:#CCCCCC;}
	.st10{opacity:0.3;}
	.st11{fill:#1976D2;}
	.st12{fill:#FAFAFA;}
	.st13{fill:#FBBD00;}
	.st14{fill:#0F9D58;}
	.st15{fill:#31AA52;}
	.st16{fill:#3C79E6;}
	.st17{fill:#CF2D48;}
	.st18{fill:#EB4132;}
</style>
<g>
	<path d="M65.99,8.31H14.01c-1.15,0-2.08,0.93-2.08,2.08v42.85c0,1.15,0.93,2.08,2.08,2.08H30.7l7.13,15.16
		c0.34,0.73,1.08,1.2,1.88,1.2c0.81,0,1.54-0.47,1.88-1.2l7.13-15.16h17.26c1.15,0,2.08-0.93,2.08-2.08V10.4
		C68.07,9.25,67.14,8.31,65.99,8.31z M63.91,51.16h-16.5c-0.81,0-1.54,0.47-1.88,1.2l-5.81,12.35l-5.81-12.35
		c-0.34-0.73-1.08-1.2-1.88-1.2H16.09V12.48h47.82V51.16z"/>
	<path d="M25.57,34.33h28.87c1.15,0,2.08-0.93,2.08-2.08c0-1.15-0.93-2.08-2.08-2.08H25.57c-1.15,0-2.08,0.93-2.08,2.08
		C23.49,33.4,24.42,34.33,25.57,34.33z"/>
</g>
</svg>
