<?xml version="1.0" encoding="utf-8"?>
<!-- Generator: Adobe Illustrator 24.1.2, SVG Export Plug-In . SVG Version: 6.00 Build 0)  -->
<svg version="1.1" id="Layer_1" xmlns="http://www.w3.org/2000/svg" xmlns:xlink="http://www.w3.org/1999/xlink" x="0px" y="0px"
	 viewBox="0 0 60 60" style="enable-background:new 0 0 60 60;" xml:space="preserve">
<style type="text/css">
	.st0{fill:#A3A3A8;}
	.st1{fill:#DE4075;}
	.st2{fill:#DD0B61;}
	.st3{fill:#FFFFFF;}
	.st4{fill:#F7F6FB;}
	.st5{opacity:0.15;}
	.st6{fill:#DF396B;}
	.st7{fill:#FF0000;}
	.st8{fill:#1A1A1A;}
	.st9{fill:#CCCCCC;}
	.st10{opacity:0.3;}
	.st11{fill:#1976D2;}
	.st12{fill:#FAFAFA;}
	.st13{fill:#FBBD00;}
	.st14{fill:#0F9D58;}
	.st15{fill:#31AA52;}
	.st16{fill:#3C79E6;}
	.st17{fill:#CF2D48;}
	.st18{fill:#EB4132;}
</style>
<g>
	<path class="st3" d="M30,10.5c-10.75,0-19.5,8.75-19.5,19.5S19.25,49.5,30,49.5S49.5,40.75,49.5,30S40.75,10.5,30,10.5z
		 M31.27,41.57c-0.93,0.15-2.77,0.54-3.71,0.62c-0.79,0.07-1.54-0.39-2-1.04c-0.46-0.65-0.57-1.48-0.3-2.23l3.69-10.14h-3.83
		c0-2.11,1.58-3.66,3.61-4.26c0.97-0.28,2.77-0.67,3.71-0.61c0.56,0.04,1.54,0.39,2,1.04c0.46,0.65,0.57,1.48,0.3,2.23l-3.69,10.14
		h3.83C34.87,39.42,33.35,41.22,31.27,41.57L31.27,41.57z M32.44,22.69c-1.35,0-2.44-1.09-2.44-2.44c0-1.35,1.09-2.44,2.44-2.44
		c1.35,0,2.44,1.09,2.44,2.44C34.87,21.6,33.78,22.69,32.44,22.69L32.44,22.69z"/>
</g>
</svg>
