<?xml version="1.0" encoding="utf-8"?>
<!-- Generator: Adobe Illustrator 24.1.2, SVG Export Plug-In . SVG Version: 6.00 Build 0)  -->
<svg version="1.1" id="Layer_1" xmlns="http://www.w3.org/2000/svg" xmlns:xlink="http://www.w3.org/1999/xlink" x="0px" y="0px"
	 viewBox="0 0 60 60" style="enable-background:new 0 0 60 60;" xml:space="preserve">
<style type="text/css">
	.st0{fill:#A3A3A8;}
	.st1{fill:#DE4075;}
	.st2{fill:#DD0B61;}
	.st3{fill:#FFFFFF;}
	.st4{fill:#F7F6FB;}
	.st5{opacity:0.15;}
	.st6{fill:#DF396B;}
	.st7{fill:#FF0000;}
	.st8{fill:#1A1A1A;}
	.st9{fill:#CCCCCC;}
	.st10{opacity:0.3;}
	.st11{fill:#1976D2;}
	.st12{fill:#FAFAFA;}
	.st13{fill:#FBBD00;}
	.st14{fill:#0F9D58;}
	.st15{fill:#31AA52;}
	.st16{fill:#3C79E6;}
	.st17{fill:#CF2D48;}
	.st18{fill:#EB4132;}
</style>
<g>
	<g>
		<g>
			<g>
				<path class="st0" d="M18.96,7.93c-0.87,0-1.58,0.71-1.58,1.58v3.15h3.15V9.51C20.54,8.63,19.83,7.93,18.96,7.93z"/>
			</g>
		</g>
		<g>
			<g>
				<path class="st0" d="M41.04,7.93c-0.87,0-1.58,0.71-1.58,1.58v3.15h3.15V9.51C42.61,8.63,41.91,7.93,41.04,7.93z"/>
			</g>
		</g>
		<g>
			<g>
				<path class="st0" d="M47.34,12.66h-4.73v6.31c0,0.87-0.71,1.58-1.58,1.58s-1.58-0.71-1.58-1.58v-6.31H20.54v6.31
					c0,0.87-0.71,1.58-1.58,1.58c-0.87,0-1.58-0.71-1.58-1.58v-6.31h-4.73c-2.61,0-4.73,2.12-4.73,4.73v29.95
					c0,2.61,2.12,4.73,4.73,4.73h34.68c2.61,0,4.73-2.12,4.73-4.73V17.39C52.07,14.78,49.95,12.66,47.34,12.66z M48.92,47.34
					c0,0.87-0.71,1.58-1.58,1.58H12.66c-0.87,0-1.58-0.71-1.58-1.58V26.85h37.84V47.34z"/>
			</g>
		</g>
		<g>
			<g>
				<path class="st0" d="M20.54,30h-3.15c-0.87,0-1.58,0.71-1.58,1.58c0,0.87,0.71,1.58,1.58,1.58h3.15c0.87,0,1.58-0.71,1.58-1.58
					S21.41,30,20.54,30z"/>
			</g>
		</g>
		<g>
			<g>
				<path class="st0" d="M31.58,30h-3.15c-0.87,0-1.58,0.71-1.58,1.58c0,0.87,0.71,1.58,1.58,1.58h3.15c0.87,0,1.58-0.71,1.58-1.58
					S32.45,30,31.58,30z"/>
			</g>
		</g>
		<g>
			<g>
				<path class="st0" d="M42.61,30h-3.15c-0.87,0-1.58,0.71-1.58,1.58c0,0.87,0.71,1.58,1.58,1.58h3.15c0.87,0,1.58-0.71,1.58-1.58
					S43.48,30,42.61,30z"/>
			</g>
		</g>
		<g>
			<g>
				<path class="st0" d="M20.54,36.31h-3.15c-0.87,0-1.58,0.71-1.58,1.58s0.71,1.58,1.58,1.58h3.15c0.87,0,1.58-0.71,1.58-1.58
					S21.41,36.31,20.54,36.31z"/>
			</g>
		</g>
		<g>
			<g>
				<path class="st0" d="M31.58,36.31h-3.15c-0.87,0-1.58,0.71-1.58,1.58s0.71,1.58,1.58,1.58h3.15c0.87,0,1.58-0.71,1.58-1.58
					S32.45,36.31,31.58,36.31z"/>
			</g>
		</g>
		<g>
			<g>
				<path class="st0" d="M42.61,36.31h-3.15c-0.87,0-1.58,0.71-1.58,1.58s0.71,1.58,1.58,1.58h3.15c0.87,0,1.58-0.71,1.58-1.58
					C44.19,37.01,43.48,36.31,42.61,36.31z"/>
			</g>
		</g>
		<g>
			<g>
				<path class="st0" d="M20.54,42.61h-3.15c-0.87,0-1.58,0.71-1.58,1.58s0.71,1.58,1.58,1.58h3.15c0.87,0,1.58-0.71,1.58-1.58
					S21.41,42.61,20.54,42.61z"/>
			</g>
		</g>
		<g>
			<g>
				<path class="st0" d="M31.58,42.61h-3.15c-0.87,0-1.58,0.71-1.58,1.58s0.71,1.58,1.58,1.58h3.15c0.87,0,1.58-0.71,1.58-1.58
					S32.45,42.61,31.58,42.61z"/>
			</g>
		</g>
		<g>
			<g>
				<path class="st0" d="M42.61,42.61h-3.15c-0.87,0-1.58,0.71-1.58,1.58s0.71,1.58,1.58,1.58h3.15c0.87,0,1.58-0.71,1.58-1.58
					S43.48,42.61,42.61,42.61z"/>
			</g>
		</g>
	</g>
</g>
</svg>
