<?xml version="1.0" encoding="utf-8"?>
<!-- Generator: Adobe Illustrator 24.1.2, SVG Export Plug-In . SVG Version: 6.00 Build 0)  -->
<svg version="1.1" id="Layer_1" xmlns="http://www.w3.org/2000/svg" xmlns:xlink="http://www.w3.org/1999/xlink" x="0px" y="0px"
	 viewBox="0 0 80 80" style="enable-background:new 0 0 80 80;" xml:space="preserve">
<style type="text/css">
	.st0{fill:#A3A3A8;}
	.st1{fill:#DE4075;}
	.st2{fill:#DD0B61;}
	.st3{fill:#FFFFFF;}
	.st4{fill:#F7F6FB;}
	.st5{opacity:0.15;}
	.st6{fill:#DF396B;}
	.st7{fill:#FF0000;}
	.st8{fill:#1A1A1A;}
	.st9{fill:#CCCCCC;}
	.st10{opacity:0.3;}
	.st11{fill:#1976D2;}
	.st12{fill:#FAFAFA;}
	.st13{fill:#FBBD00;}
	.st14{fill:#0F9D58;}
	.st15{fill:#31AA52;}
	.st16{fill:#3C79E6;}
	.st17{fill:#CF2D48;}
	.st18{fill:#EB4132;}
</style>
<g>
	<g>
		<path d="M40,42.15c9.6,0,17.41-7.81,17.41-17.41c0-9.6-7.81-17.41-17.41-17.41s-17.41,7.81-17.41,17.41
			C22.59,34.34,30.4,42.15,40,42.15z M40,11.62c7.23,0,13.12,5.88,13.12,13.12c0,7.23-5.88,13.12-13.12,13.12
			s-13.12-5.88-13.12-13.12C26.88,17.51,32.77,11.62,40,11.62z"/>
		<path d="M46.53,44.51H33.47c-10.25,0-18.6,8.34-18.6,18.6v7.42c0,1.19,0.96,2.15,2.15,2.15s2.15-0.96,2.15-2.15v-7.42
			c0-7.89,6.42-14.3,14.3-14.3h13.07c7.89,0,14.3,6.42,14.3,14.3v7.42c0,1.19,0.96,2.15,2.15,2.15c1.19,0,2.15-0.96,2.15-2.15v-7.42
			C65.13,52.85,56.79,44.51,46.53,44.51z"/>
	</g>
</g>
</svg>
