<?xml version="1.0" encoding="utf-8"?>
<!-- Generator: Adobe Illustrator 24.1.2, SVG Export Plug-In . SVG Version: 6.00 Build 0)  -->
<svg version="1.1" id="Layer_1" xmlns="http://www.w3.org/2000/svg" xmlns:xlink="http://www.w3.org/1999/xlink" x="0px" y="0px"
	 viewBox="0 0 60 60" style="enable-background:new 0 0 60 60;" xml:space="preserve">
<style type="text/css">
	.st0{fill:#A3A3A8;}
	.st1{fill:#DE4075;}
	.st2{fill:#DD0B61;}
	.st3{fill:#FFFFFF;}
	.st4{fill:#F7F6FB;}
	.st5{opacity:0.15;}
	.st6{fill:#DF396B;}
	.st7{fill:#FF0000;}
	.st8{fill:#1A1A1A;}
	.st9{fill:#CCCCCC;}
	.st10{opacity:0.3;}
	.st11{fill:#1976D2;}
	.st12{fill:#FAFAFA;}
	.st13{fill:#FBBD00;}
	.st14{fill:#0F9D58;}
	.st15{fill:#31AA52;}
	.st16{fill:#3C79E6;}
	.st17{fill:#CF2D48;}
	.st18{fill:#EB4132;}
</style>
<g>
	<g>
		<g>
			<path class="st0" d="M30,17.75c-10.78,0-20.39,11.21-20.79,11.68c-0.28,0.33-0.28,0.8,0,1.13c0.24,0.29,3.77,4.39,8.87,7.65
				l5.48-5.48C23.2,31.89,23,30.97,23,30c0-3.86,3.14-7,7-7c0.97,0,1.89,0.2,2.73,0.56l4.51-4.51C35.04,18.26,32.63,17.75,30,17.75z
				"/>
		</g>
	</g>
	<g>
		<g>
			<path class="st0" d="M50.84,29.5c-0.22-0.32-3.94-5.55-10.18-8.92l4.84-4.84c0.34-0.34,0.34-0.9,0-1.24
				c-0.34-0.34-0.9-0.34-1.24,0L14.51,44.26c-0.34,0.34-0.34,0.9,0,1.24c0.17,0.17,0.39,0.26,0.62,0.26s0.45-0.09,0.62-0.26
				l5.49-5.49c2.7,1.32,5.69,2.24,8.77,2.24c10.78,0,20.39-11.21,20.79-11.68C51.05,30.26,51.07,29.83,50.84,29.5z M30,37
				c-1.62,0-3.08-0.57-4.27-1.49l9.78-9.78C36.43,26.92,37,28.39,37,30C37,33.86,33.86,37,30,37z"/>
		</g>
	</g>
</g>
</svg>
