<?xml version="1.0" encoding="utf-8"?>
<!-- Generator: Adobe Illustrator 24.1.2, SVG Export Plug-In . SVG Version: 6.00 Build 0)  -->
<svg version="1.1" id="Layer_1" xmlns="http://www.w3.org/2000/svg" xmlns:xlink="http://www.w3.org/1999/xlink" x="0px" y="0px"
	 viewBox="0 0 250.4 250.4" style="enable-background:new 0 0 250.4 250.4;" xml:space="preserve">
<style type="text/css">
	.st0{fill:#A3A3A8;}
	.st1{fill:#DE4075;}
	.st2{fill:#DD0B61;}
	.st3{fill:#FFFFFF;}
	.st4{fill:#F7F6FB;}
	.st5{opacity:0.15;}
	.st6{fill:#DF396B;}
	.st7{fill:#FF0000;}
	.st8{fill:#1A1A1A;}
	.st9{fill:#CCCCCC;}
	.st10{opacity:0.3;}
	.st11{fill:#1976D2;}
	.st12{fill:#FAFAFA;}
	.st13{fill:#FBBD00;}
	.st14{fill:#0F9D58;}
	.st15{fill:#31AA52;}
	.st16{fill:#3C79E6;}
	.st17{fill:#CF2D48;}
	.st18{fill:#EB4132;}
</style>
<g>
	<ellipse class="st7" cx="125.2" cy="125.2" rx="100.79" ry="100.79"/>
	<path class="st7" d="M125.2,234.4c-27.98,0-55.96-10.65-77.26-31.94c-42.59-42.59-42.59-111.91,0-154.52l0,0
		c42.59-42.59,111.92-42.59,154.52,0c42.59,42.6,42.59,111.91,0,154.52C181.16,223.75,153.17,234.4,125.2,234.4z M59.91,59.91
		c-35.99,36-35.99,94.58,0,130.58c36.01,35.99,94.59,36,130.58,0s35.99-94.58,0-130.58C154.48,23.92,95.91,23.92,59.91,59.91
		L59.91,59.91z"/>
	<g>
		<path class="st3" d="M95.82,163.03c-2.17,0-4.33-0.83-5.98-2.48c-3.31-3.31-3.31-8.66,0-11.97l59.83-59.83
			c3.31-3.31,8.66-3.31,11.97,0c3.31,3.31,3.31,8.66,0,11.97l-59.83,59.83C100.14,162.2,97.98,163.03,95.82,163.03z"/>
		<path class="st3" d="M155.64,163.03c-2.17,0-4.33-0.83-5.98-2.48l-59.83-59.83c-3.31-3.31-3.31-8.66,0-11.97
			c3.31-3.31,8.66-3.31,11.97,0l59.83,59.83c3.31,3.31,3.31,8.66,0,11.97C159.97,162.2,157.81,163.03,155.64,163.03z"/>
	</g>
</g>
</svg>
