<?xml version="1.0" encoding="utf-8"?>
<!-- Generator: Adobe Illustrator 24.1.2, SVG Export Plug-In . SVG Version: 6.00 Build 0)  -->
<svg version="1.1" id="Layer_1" xmlns="http://www.w3.org/2000/svg" xmlns:xlink="http://www.w3.org/1999/xlink" x="0px" y="0px"
	 viewBox="0 0 60 60" style="enable-background:new 0 0 60 60;" xml:space="preserve">
<style type="text/css">
	.st0{fill:#A3A3A8;}
	.st1{fill:#DE4075;}
	.st2{fill:#DD0B61;}
	.st3{fill:#FFFFFF;}
	.st4{fill:#F7F6FB;}
	.st5{opacity:0.15;}
	.st6{fill:#DF396B;}
	.st7{fill:#FF0000;}
	.st8{fill:#1A1A1A;}
	.st9{fill:#CCCCCC;}
	.st10{opacity:0.3;}
	.st11{fill:#1976D2;}
	.st12{fill:#FAFAFA;}
	.st13{fill:#FBBD00;}
	.st14{fill:#0F9D58;}
	.st15{fill:#31AA52;}
	.st16{fill:#3C79E6;}
	.st17{fill:#CF2D48;}
	.st18{fill:#EB4132;}
</style>
<g>
	<g>
		<path class="st8" d="M30,11.29c-10.34,0-18.71,8.37-18.71,18.71S19.66,48.71,30,48.71S48.71,40.34,48.71,30S40.34,11.29,30,11.29z
			 M15.03,30c0-8.27,6.7-14.97,14.97-14.97c3.46,0,6.63,1.19,9.17,3.15L18.18,39.17C16.22,36.63,15.03,33.46,15.03,30z M30,44.97
			c-3.46,0-6.63-1.19-9.17-3.15l20.99-20.99c1.97,2.54,3.15,5.71,3.15,9.17C44.97,38.27,38.27,44.97,30,44.97z"/>
	</g>
</g>
</svg>
