<?xml version="1.0" encoding="utf-8"?>
<!-- Generator: Adobe Illustrator 24.1.2, SVG Export Plug-In . SVG Version: 6.00 Build 0)  -->
<svg version="1.1" id="Layer_1" xmlns="http://www.w3.org/2000/svg" xmlns:xlink="http://www.w3.org/1999/xlink" x="0px" y="0px"
	 viewBox="0 0 60 60" style="enable-background:new 0 0 60 60;" xml:space="preserve">
<style type="text/css">
	.st0{fill:#A3A3A8;}
	.st1{fill:#DE4075;}
	.st2{fill:#DD0B61;}
	.st3{fill:#FFFFFF;}
	.st4{fill:#F7F6FB;}
	.st5{opacity:0.15;}
	.st6{fill:#DF396B;}
	.st7{fill:#FF0000;}
	.st8{fill:#1A1A1A;}
	.st9{fill:#CCCCCC;}
	.st10{opacity:0.3;}
	.st11{fill:#1976D2;}
	.st12{fill:#FAFAFA;}
	.st13{fill:#FBBD00;}
	.st14{fill:#0F9D58;}
	.st15{fill:#31AA52;}
	.st16{fill:#3C79E6;}
	.st17{fill:#CF2D48;}
	.st18{fill:#EB4132;}
</style>
<g>
	<g>
		<g>
			<path class="st3" d="M30,31.64c7.33,0,13.29-5.96,13.29-13.29c0-7.33-5.96-13.29-13.29-13.29s-13.29,5.96-13.29,13.29
				C16.71,25.68,22.67,31.64,30,31.64z M30,8.33c5.52,0,10.01,4.49,10.01,10.01c0,5.52-4.49,10.01-10.01,10.01
				s-10.01-4.49-10.01-10.01C19.99,12.83,24.48,8.33,30,8.33z"/>
			<path class="st3" d="M34.99,33.44h-9.98c-7.83,0-14.2,6.37-14.2,14.2v5.66c0,0.91,0.73,1.64,1.64,1.64s1.64-0.73,1.64-1.64v-5.66
				c0-6.02,4.9-10.92,10.92-10.92h9.98c6.02,0,10.92,4.9,10.92,10.92v5.66c0,0.91,0.73,1.64,1.64,1.64c0.91,0,1.64-0.73,1.64-1.64
				v-5.66C49.19,39.81,42.82,33.44,34.99,33.44z"/>
		</g>
	</g>
</g>
</svg>
