<?xml version="1.0" encoding="utf-8"?>
<!-- Generator: Adobe Illustrator 24.1.2, SVG Export Plug-In . SVG Version: 6.00 Build 0)  -->
<svg version="1.1" id="Layer_1" xmlns="http://www.w3.org/2000/svg" xmlns:xlink="http://www.w3.org/1999/xlink" x="0px" y="0px"
	 viewBox="0 0 60 60" style="enable-background:new 0 0 60 60;" xml:space="preserve">
<style type="text/css">
	.st0{fill:#A3A3A8;}
	.st1{fill:#DE4075;}
	.st2{fill:#DD0B61;}
	.st3{fill:#FFFFFF;}
	.st4{fill:#F7F6FB;}
	.st5{opacity:0.15;}
	.st6{fill:#DF396B;}
	.st7{fill:#FF0000;}
	.st8{fill:#1A1A1A;}
	.st9{fill:#CCCCCC;}
	.st10{opacity:0.3;}
	.st11{fill:#1976D2;}
	.st12{fill:#FAFAFA;}
	.st13{fill:#FBBD00;}
	.st14{fill:#0F9D58;}
	.st15{fill:#31AA52;}
	.st16{fill:#3C79E6;}
	.st17{fill:#CF2D48;}
	.st18{fill:#EB4132;}
</style>
<g>
	<g>
		<g>
			<path class="st3" d="M29.93,47.8H13.91c-0.98,0-1.78-0.8-1.78-1.78V13.98c0-0.98,0.8-1.78,1.78-1.78h16.02
				c0.98,0,1.78-0.8,1.78-1.78s-0.8-1.78-1.78-1.78H13.91c-2.94,0-5.34,2.4-5.34,5.34v32.04c0,2.94,2.4,5.34,5.34,5.34h16.02
				c0.98,0,1.78-0.8,1.78-1.78S30.91,47.8,29.93,47.8z"/>
		</g>
	</g>
	<g>
		<g>
			<path class="st3" d="M50.9,28.73L40.08,18.05c-0.7-0.69-1.83-0.68-2.52,0.02c-0.69,0.7-0.68,1.83,0.02,2.52l7.73,7.63H24.59
				c-0.98,0-1.78,0.8-1.78,1.78s0.8,1.78,1.78,1.78h20.72l-7.73,7.63c-0.7,0.69-0.71,1.82-0.02,2.52c0.35,0.35,0.81,0.53,1.27,0.53
				c0.45,0,0.9-0.17,1.25-0.51L50.9,31.27c0.34-0.33,0.53-0.79,0.53-1.27C51.43,29.52,51.24,29.07,50.9,28.73z"/>
		</g>
	</g>
</g>
</svg>
