<?xml version="1.0" encoding="utf-8"?>
<!-- Generator: Adobe Illustrator 24.1.2, SVG Export Plug-In . SVG Version: 6.00 Build 0)  -->
<svg version="1.1" id="Layer_1" xmlns="http://www.w3.org/2000/svg" xmlns:xlink="http://www.w3.org/1999/xlink" x="0px" y="0px"
	 viewBox="0 0 60 60" style="enable-background:new 0 0 60 60;" xml:space="preserve">
<style type="text/css">
	.st0{fill:#A3A3A8;}
	.st1{fill:#DE4075;}
	.st2{fill:#DD0B61;}
	.st3{fill:#FFFFFF;}
	.st4{fill:#F7F6FB;}
	.st5{opacity:0.15;}
	.st6{fill:#DF396B;}
	.st7{fill:#FF0000;}
	.st8{fill:#1A1A1A;}
	.st9{fill:#CCCCCC;}
	.st10{opacity:0.3;}
	.st11{fill:#1976D2;}
	.st12{fill:#FAFAFA;}
	.st13{fill:#FBBD00;}
	.st14{fill:#0F9D58;}
	.st15{fill:#31AA52;}
	.st16{fill:#3C79E6;}
	.st17{fill:#CF2D48;}
	.st18{fill:#EB4132;}
</style>
<g>
	<g>
		<g>
			<path class="st3" d="M39.55,24.75H21.41v-6.08c0-5,4.07-9.07,9.07-9.07s9.07,4.07,9.07,9.07V24.75z M24.41,21.74h12.15v-3.08
				c0-3.35-2.72-6.07-6.07-6.07s-6.07,2.72-6.07,6.07V21.74z"/>
		</g>
		<g>
			<path class="st3" d="M44.46,25.01H16.5v-7.98c0-6.73,6.27-12.21,13.98-12.21c7.71,0,13.98,5.48,13.98,12.21V25.01z M19.5,22.01
				h21.96v-4.98c0-5.08-4.93-9.21-10.98-9.21c-6.05,0-10.98,4.13-10.98,9.21V22.01z"/>
		</g>
		<g>
			<path class="st3" d="M30.1,47.3c1.48,0,2.68-1.2,2.68-2.68v-4.75c1.34-0.89,2.16-2.38,2.16-4.02c0-2.66-2.17-4.83-4.83-4.83
				c-2.66,0-4.83,2.17-4.83,4.83c0,1.63,0.81,3.12,2.13,4.01v4.76C27.41,46.1,28.62,47.3,30.1,47.3z M27.07,35.85
				c0-1.68,1.36-3.04,3.04-3.04c1.68,0,3.04,1.36,3.04,3.04c0,1.15-0.64,2.19-1.67,2.71c-0.3,0.15-0.49,0.46-0.49,0.8v5.26
				c0,0.49-0.4,0.89-0.89,0.89s-0.89-0.4-0.89-0.89v-5.27c0-0.33-0.19-0.64-0.48-0.79C27.7,38.03,27.07,36.99,27.07,35.85z"/>
		</g>
		<g>
			<path class="st3" d="M43.81,55.18H16.72c-4.55,0-8.24-3.41-8.24-7.61v-3.59c0-0.83,0.67-1.5,1.5-1.5s1.5,0.67,1.5,1.5v3.59
				c0,2.54,2.35,4.61,5.24,4.61h27.09c2.89,0,5.24-2.07,5.24-4.61V29.78c0-2.54-2.35-4.61-5.24-4.61H16.72
				c-2.89,0-5.24,2.07-5.24,4.61v4.98c0,0.83-0.67,1.5-1.5,1.5s-1.5-0.67-1.5-1.5v-4.98c0-4.2,3.7-7.61,8.24-7.61h27.09
				c4.55,0,8.24,3.41,8.24,7.61v17.79C52.06,51.77,48.36,55.18,43.81,55.18z"/>
		</g>
		<g>
			<circle class="st3" cx="9.45" cy="39.05" r="1.5"/>
		</g>
		<g>
			<circle class="st3" cx="43.96" cy="39.8" r="1.5"/>
		</g>
		<g>
			<path class="st3" d="M43.85,53.68c-0.83,0-1.5-0.67-1.5-1.5v-7.13c0-0.83,0.67-1.5,1.5-1.5s1.5,0.67,1.5,1.5v7.13
				C45.35,53.01,44.68,53.68,43.85,53.68z"/>
		</g>
	</g>
</g>
</svg>
