<?xml version="1.0" encoding="utf-8"?>
<!-- Generator: Adobe Illustrator 24.1.2, SVG Export Plug-In . SVG Version: 6.00 Build 0)  -->
<svg version="1.1" id="Layer_1" xmlns="http://www.w3.org/2000/svg" xmlns:xlink="http://www.w3.org/1999/xlink" x="0px" y="0px"
	 viewBox="0 0 60 60" style="enable-background:new 0 0 60 60;" xml:space="preserve">
<style type="text/css">
	.st0{fill:#A3A3A8;}
	.st1{fill:#DE4075;}
	.st2{fill:#DD0B61;}
	.st3{fill:#FFFFFF;}
	.st4{fill:#F7F6FB;}
	.st5{opacity:0.15;}
	.st6{fill:#DF396B;}
	.st7{fill:#FF0000;}
	.st8{fill:#1A1A1A;}
	.st9{fill:#CCCCCC;}
	.st10{opacity:0.3;}
	.st11{fill:#1976D2;}
	.st12{fill:#FAFAFA;}
	.st13{fill:#FBBD00;}
	.st14{fill:#0F9D58;}
	.st15{fill:#31AA52;}
	.st16{fill:#3C79E6;}
	.st17{fill:#CF2D48;}
	.st18{fill:#EB4132;}
</style>
<g>
	<g>
		<g>
			<path class="st0" d="M49.83,27.83L31.42,11.05c-0.81-0.74-2.03-0.74-2.83,0L10.17,27.83c-0.65,0.59-0.86,1.5-0.54,2.32
				c0.32,0.82,1.09,1.34,1.96,1.34h2.94v16.81c0,0.67,0.54,1.21,1.21,1.21h10.09c0.67,0,1.21-0.54,1.21-1.21v-10.2h5.93v10.2
				c0,0.67,0.54,1.21,1.21,1.21h10.09c0.67,0,1.21-0.54,1.21-1.21V31.49h2.94c0.88,0,1.65-0.53,1.96-1.34
				C50.69,29.33,50.47,28.42,49.83,27.83z"/>
		</g>
	</g>
	<g>
		<g>
			<path class="st0" d="M45.15,12.91h-8.1l9.31,8.47v-7.26C46.36,13.45,45.82,12.91,45.15,12.91z"/>
		</g>
	</g>
</g>
</svg>
