<?xml version="1.0" encoding="utf-8"?>
<!-- Generator: Adobe Illustrator 24.1.2, SVG Export Plug-In . SVG Version: 6.00 Build 0)  -->
<svg version="1.1" id="Layer_1" xmlns="http://www.w3.org/2000/svg" xmlns:xlink="http://www.w3.org/1999/xlink" x="0px" y="0px"
	 viewBox="0 0 60 60" style="enable-background:new 0 0 60 60;" xml:space="preserve">
<style type="text/css">
	.st0{fill:#A3A3A8;}
	.st1{fill:#DE4075;}
	.st2{fill:#DD0B61;}
	.st3{fill:#FFFFFF;}
	.st4{fill:#F7F6FB;}
	.st5{opacity:0.15;}
	.st6{fill:#DF396B;}
	.st7{fill:#FF0000;}
	.st8{fill:#1A1A1A;}
	.st9{fill:#CCCCCC;}
	.st10{opacity:0.3;}
	.st11{fill:#1976D2;}
	.st12{fill:#FAFAFA;}
	.st13{fill:#FBBD00;}
	.st14{fill:#0F9D58;}
	.st15{fill:#31AA52;}
	.st16{fill:#3C79E6;}
	.st17{fill:#CF2D48;}
	.st18{fill:#EB4132;}
</style>
<g>
	<g>
		<g>
			<path class="st0" d="M30,31.06c4.46,0,8.07-4.23,8.07-9.45c0-7.24-3.62-9.45-8.07-9.45c-4.46,0-8.07,2.21-8.07,9.45
				C21.93,26.83,25.54,31.06,30,31.06z"/>
			<path class="st0" d="M47.83,44.97l-4.07-9.18c-0.19-0.42-0.51-0.77-0.92-0.98l-6.32-3.29c-0.14-0.07-0.31-0.06-0.43,0.04
				c-1.79,1.35-3.89,2.07-6.08,2.07c-2.19,0-4.29-0.71-6.08-2.07c-0.13-0.09-0.29-0.11-0.43-0.04l-6.32,3.29
				c-0.41,0.21-0.73,0.56-0.92,0.98l-4.07,9.18c-0.28,0.63-0.22,1.36,0.15,1.94c0.38,0.58,1.02,0.93,1.71,0.93h31.94
				c0.69,0,1.33-0.35,1.71-0.93C48.05,46.33,48.11,45.61,47.83,44.97z"/>
		</g>
	</g>
</g>
</svg>
