<?xml version="1.0" encoding="utf-8"?>
<!-- Generator: Adobe Illustrator 24.1.2, SVG Export Plug-In . SVG Version: 6.00 Build 0)  -->
<svg version="1.1" id="Layer_1" xmlns="http://www.w3.org/2000/svg" xmlns:xlink="http://www.w3.org/1999/xlink" x="0px" y="0px"
	 viewBox="0 0 60 60" style="enable-background:new 0 0 60 60;" xml:space="preserve">
<style type="text/css">
	.st0{fill:#A3A3A8;}
	.st1{fill:#DE4075;}
	.st2{fill:#DD0B61;}
	.st3{fill:#FFFFFF;}
	.st4{fill:#F7F6FB;}
	.st5{opacity:0.15;}
	.st6{fill:#DF396B;}
	.st7{fill:#FF0000;}
	.st8{fill:#1A1A1A;}
	.st9{fill:#CCCCCC;}
	.st10{opacity:0.3;}
	.st11{fill:#1976D2;}
	.st12{fill:#FAFAFA;}
	.st13{fill:#FBBD00;}
	.st14{fill:#0F9D58;}
	.st15{fill:#31AA52;}
	.st16{fill:#3C79E6;}
	.st17{fill:#CF2D48;}
	.st18{fill:#EB4132;}
</style>
<g>
	<g>
		<path class="st8" d="M49.58,40.21L35.15,13.68c-2.32-3.9-7.97-3.91-10.3,0L10.42,40.21c-2.37,3.99,0.5,9.04,5.15,9.04h28.87
			C49.08,49.26,51.96,44.21,49.58,40.21z M30,44.47c-1.32,0-2.39-1.07-2.39-2.39c0-1.32,1.07-2.39,2.39-2.39
			c1.32,0,2.39,1.07,2.39,2.39C32.39,43.39,31.32,44.47,30,44.47z M32.39,34.89c0,1.32-1.07,2.39-2.39,2.39
			c-1.32,0-2.39-1.07-2.39-2.39V22.92c0-1.32,1.07-2.39,2.39-2.39c1.32,0,2.39,1.07,2.39,2.39V34.89z"/>
	</g>
</g>
</svg>
