<?xml version="1.0" encoding="utf-8"?>
<!-- Generator: Adobe Illustrator 24.1.2, SVG Export Plug-In . SVG Version: 6.00 Build 0)  -->
<svg version="1.1" id="Layer_1" xmlns="http://www.w3.org/2000/svg" xmlns:xlink="http://www.w3.org/1999/xlink" x="0px" y="0px"
	 viewBox="0 0 80 80" style="enable-background:new 0 0 80 80;" xml:space="preserve">
<style type="text/css">
	.st0{fill:#A3A3A8;}
	.st1{fill:#DE4075;}
	.st2{fill:#DD0B61;}
	.st3{fill:#FFFFFF;}
	.st4{fill:#F7F6FB;}
	.st5{opacity:0.15;}
	.st6{fill:#DF396B;}
	.st7{fill:#FF0000;}
	.st8{fill:#1A1A1A;}
	.st9{fill:#CCCCCC;}
	.st10{opacity:0.3;}
	.st11{fill:#1976D2;}
	.st12{fill:#FAFAFA;}
	.st13{fill:#FBBD00;}
	.st14{fill:#0F9D58;}
	.st15{fill:#31AA52;}
	.st16{fill:#3C79E6;}
	.st17{fill:#CF2D48;}
	.st18{fill:#EB4132;}
</style>
<g>
	<g>
		<path class="st1" d="M57.52,68.25h-9.05c-2.14,0-3.88-1.74-3.88-3.88V51.59c0-2.45-1.82-4.54-4.15-4.76
			c-1.31-0.12-2.57,0.3-3.54,1.18c-0.95,0.87-1.5,2.11-1.5,3.4v12.96c0,2.14-1.74,3.88-3.88,3.88h-9.05c-2.01,0-3.71-1.57-3.87-3.58
			L16.56,42.8h-2.25c-1.13,0-2.13-0.67-2.56-1.71c-0.43-1.04-0.19-2.23,0.6-3.02l25.42-25.42c1.19-1.19,3.27-1.19,4.46,0
			l25.42,25.42c0.8,0.8,1.03,1.98,0.6,3.02c-0.43,1.04-1.44,1.71-2.56,1.71h-2.25l-2.05,21.9C61.24,66.67,59.54,68.25,57.52,68.25z
			 M40.02,43.11c0.26,0,0.51,0.01,0.77,0.04c4.21,0.39,7.51,4.1,7.51,8.44v12.77c0,0.1,0.08,0.18,0.18,0.18h9.05
			c0.09,0,0.17-0.07,0.18-0.17l2.14-22.82c0.11-1.37,1.29-2.46,2.68-2.46h0.93L40,15.65L16.55,39.1h0.93c1.4,0,2.58,1.09,2.69,2.49
			l2.13,22.76c0.01,0.12,0.09,0.2,0.18,0.2h9.05c0.1,0,0.18-0.08,0.18-0.18V51.41c0-2.33,0.99-4.56,2.71-6.13
			C35.95,43.88,37.95,43.11,40.02,43.11z M16.48,41.9c0,0.01,0,0.02,0,0.03L16.48,41.9z M63.53,41.87l0,0.03
			C63.53,41.89,63.53,41.88,63.53,41.87z"/>
	</g>
</g>
</svg>
