<?xml version="1.0" encoding="utf-8"?>
<!-- Generator: Adobe Illustrator 24.1.2, SVG Export Plug-In . SVG Version: 6.00 Build 0)  -->
<svg version="1.1" id="Layer_1" xmlns="http://www.w3.org/2000/svg" xmlns:xlink="http://www.w3.org/1999/xlink" x="0px" y="0px"
	 viewBox="0 0 60 60" style="enable-background:new 0 0 60 60;" xml:space="preserve">
<style type="text/css">
	.st0{fill:#A3A3A8;}
	.st1{fill:#DE4075;}
	.st2{fill:#DD0B61;}
	.st3{fill:#FFFFFF;}
	.st4{fill:#F7F6FB;}
	.st5{opacity:0.15;}
	.st6{fill:#DF396B;}
	.st7{fill:#FF0000;}
	.st8{fill:#1A1A1A;}
	.st9{fill:#CCCCCC;}
	.st10{opacity:0.3;}
	.st11{fill:#1976D2;}
	.st12{fill:#FAFAFA;}
	.st13{fill:#FBBD00;}
	.st14{fill:#0F9D58;}
	.st15{fill:#31AA52;}
	.st16{fill:#3C79E6;}
	.st17{fill:#CF2D48;}
	.st18{fill:#EB4132;}
</style>
<g>
	<g>
		<g>
			<path class="st0" d="M35.23,20.41c-0.96,0-1.74-0.78-1.74-1.74v-2.61h-6.97v2.61c0,0.96-0.78,1.74-1.74,1.74
				s-1.74-0.78-1.74-1.74v-2.61c0-1.92,1.56-3.49,3.49-3.49h6.97c1.92,0,3.49,1.56,3.49,3.49v2.61
				C36.97,19.63,36.19,20.41,35.23,20.41z"/>
		</g>
		<g>
			<path class="st0" d="M31.24,35.89c-0.31,0.12-0.77,0.21-1.24,0.21s-0.92-0.09-1.34-0.24L9.09,29.34v13.3
				c0,2.65,2.14,4.79,4.79,4.79h32.24c2.65,0,4.79-2.14,4.79-4.79v-13.3L31.24,35.89z"/>
		</g>
		<g>
			<path class="st0" d="M50.91,22.59v3.99l-20.5,6.83c-0.14,0.05-0.28,0.07-0.42,0.07s-0.28-0.02-0.42-0.07l-20.5-6.83v-3.99
				c0-2.65,2.14-4.79,4.79-4.79h32.24C48.77,17.8,50.91,19.94,50.91,22.59z"/>
		</g>
	</g>
</g>
</svg>
